<svg xmlns="http://www.w3.org/2000/svg" viewBox="0 0 344 82"><defs><style>.cls-1,.cls-3,.cls-4,.cls-5,.cls-6{fill:none;stroke:#fff;stroke-miterlimit:10;}.cls-1{stroke-width:2.62px;}.cls-2{fill:#fff;}.cls-3,.cls-5{stroke-width:2px;}.cls-4,.cls-5,.cls-6{stroke-linecap:round;}.cls-4{stroke-width:1.35px;}.cls-6{stroke-width:1.26px;}</style></defs><title>logo-white</title><g id="Full_Logo" data-name="Full Logo"><line id="Divider" class="cls-1" x1="78.1" y1="3.78" x2="78.1" y2="78.6"/><path id="Outline" class="cls-2" d="M336.86,2.19H6.83c-2.3,0-4.16,2.15-4.16,4.8v68.4c0,2.65,1.86,4.8,4.16,4.8h330c2.3,0,4.16-2.15,4.16-4.8V7C341,4.34,339.16,2.19,336.86,2.19Zm1.56,75H5.27v-72H338.42Z"/><path class="cls-2" d="M123.61,23.3c.29-.7.58-1.1,1.33-1.1s1,.34,1,.81a2.12,2.12,0,0,1-.17.69L112,59.37a1.36,1.36,0,0,1-2.67,0L96.06,23.7a2.41,2.41,0,0,1-.17-.75c0-.46.4-.75,1-.75a1.48,1.48,0,0,1,1.45,1.1l12.41,33.41Z"/><path class="cls-2" d="M138.4,38.61h11.14a1.91,1.91,0,0,1,1,.17.9.9,0,0,1,.41.82.93.93,0,0,1-.41.87,1.91,1.91,0,0,1-1,.17H138.4V58.1h15.2a1.91,1.91,0,0,1,1,.17.89.89,0,0,1,.41.81.91.91,0,0,1-.41.87,1.81,1.81,0,0,1-1,.18H137.24c-.87,0-1.16-.41-1.16-1.16V23.76c0-.75.29-1.16,1.16-1.16h14.38a1.83,1.83,0,0,1,1,.18.87.87,0,0,1,.41.81.93.93,0,0,1-.41.87,1.93,1.93,0,0,1-1,.17H138.4Z"/><path class="cls-2" d="M195.06,56.18c0,1.45-.4,2-3.19,3a26.81,26.81,0,0,1-9,1.57c-11.2,0-20.07-6.56-20.07-19.66,0-14.16,10.38-19.38,19.83-19.38A21.46,21.46,0,0,1,193,24.17c1.57.87,2,1.45,2,1.91a1.22,1.22,0,0,1-1,1.1c-.7,0-1.62-1.1-4.18-2.08a21,21,0,0,0-7.54-1.34c-8,0-17.05,4.35-17.05,17,0,11.83,7.95,17.86,17.63,17.86a23.21,23.21,0,0,0,9.86-2.15V47.89a1.53,1.53,0,0,1,.18-.93,1.41,1.41,0,0,1,2,0,1.61,1.61,0,0,1,.17.93Z"/><path class="cls-2" d="M224.93,45H210.55L205,59.37c-.29.7-.58,1.11-1.33,1.11s-1-.29-1-.76a2.5,2.5,0,0,1,.23-.87L216.64,23.3a1.36,1.36,0,0,1,2.67,0l13.22,35.55a2.69,2.69,0,0,1,.23.87c0,.41-.29.76-1.1.76s-1.1-.29-1.39-1.11Zm-13.62-2h12.87L217.86,26Z"/><path class="cls-2" d="M257.94,58.85c-2.26,1.1-5.05,1.63-9.28,1.63a22.49,22.49,0,0,1-4.18-.29c-1.62-.35-1.74-1-1.74-1.92V24.46c0-.93,0-1.68,1.92-2a39.1,39.1,0,0,1,4.81-.29c4,0,11.54,1.1,11.54,8.52s-7.31,8.59-7.31,8.59,10,.58,10,10.2A9.75,9.75,0,0,1,257.94,58.85ZM245.06,38.44h2.79c2.14,0,5.56,0,8.12-2a6.63,6.63,0,0,0,2.55-5.4c0-5.1-4.64-6.84-9.4-6.84a34.22,34.22,0,0,0-4.06.29Zm0,19.77a19.31,19.31,0,0,0,3.83.29c8.87,0,12.35-3.48,12.35-8.7A8,8,0,0,0,257,42.32c-3.13-1.8-7-1.85-9.57-1.85h-2.32Z"/><path class="cls-2" d="M291.75,58.1a1.93,1.93,0,0,1,1,.17.88.88,0,0,1,.4.81.9.9,0,0,1-.4.87,1.83,1.83,0,0,1-1,.18H276.26c-.87,0-1.16-.41-1.16-1.16V23.53a1.53,1.53,0,0,1,.18-.93,1.41,1.41,0,0,1,2,0,1.53,1.53,0,0,1,.18.93V58.1Z"/><path class="cls-2" d="M305.21,38.61h11.13a1.93,1.93,0,0,1,1,.17.89.89,0,0,1,.4.82.92.92,0,0,1-.4.87,1.93,1.93,0,0,1-1,.17H305.21V58.1H320.4a1.93,1.93,0,0,1,1,.17.88.88,0,0,1,.4.81.9.9,0,0,1-.4.87,1.83,1.83,0,0,1-1,.18H304.05c-.87,0-1.16-.41-1.16-1.16V23.76c0-.75.29-1.16,1.16-1.16h14.38a1.83,1.83,0,0,1,1,.18.86.86,0,0,1,.4.81.92.92,0,0,1-.4.87,1.93,1.93,0,0,1-1,.17H305.21Z"/></g><g id="Layer_2" data-name="Layer 2"><path class="cls-3" d="M45.6,23.91a38.25,38.25,0,0,0-4,.92c-1.09-.29-2.21-.54-3.37-.74-10.09-1.77-21.11,6.39-20.31,18.27C18.66,53.62,26.36,62,36.56,62a19.49,19.49,0,0,0,5.67-.86,19.26,19.26,0,0,0,5,.67c10.2,0,17.9-8.35,18.66-19.61C66.71,30.3,55.68,22.14,45.6,23.91Z"/><path class="cls-4" d="M31.74,27.94c-3.13,1.24-7.55,3.6-9.19,7.79-.11.29-.21.58-.29.87"/><path class="cls-5" d="M41.9,24.61c2.25-2,5.21-5.35,5.2-9.11,0-.26,0-.51,0-.76"/><path class="cls-6" d="M43.8,22.89c2.36.39,5.89.56,8.29-1.34.17-.13.32-.27.47-.41"/><path class="cls-6" d="M35,20.69c1.89,1.48,4.89,3.33,7.91,2.83a5.45,5.45,0,0,0,.61-.14"/></g></svg>