<svg xmlns="http://www.w3.org/2000/svg" viewBox="0 0 92.24 92.24"><defs><style>.cls-1{fill:#231f20;}.cls-2{fill:#c6433d;}.cls-3,.cls-4,.cls-5,.cls-6{fill:none;stroke:#231f20;stroke-miterlimit:10;}.cls-3,.cls-5{stroke-width:1.86px;}.cls-4,.cls-5,.cls-6{stroke-linecap:round;}.cls-4{stroke-width:1.59px;}.cls-6{stroke-width:1.49px;}</style></defs><title>Asset 1</title><g id="Layer_2" data-name="Layer 2"><g id="Layer_2-2" data-name="Layer 2"><g id="Outline_Logo" data-name="Outline Logo"><path class="cls-1" d="M87.12,0h-82A5.12,5.12,0,0,0,0,5.12v82a5.12,5.12,0,0,0,5.12,5.12h82a5.12,5.12,0,0,0,5.12-5.12v-82A5.12,5.12,0,0,0,87.12,0ZM89,87.87H3.2V3.32H89Z"/></g><path class="cls-2" d="M49.45,28a46,46,0,0,0-4.76,1.09c-1.29-.34-2.62-.63-4-.87-11.93-2.1-25,7.55-24,21.6.9,13.32,10,23.2,22.08,23.2a23.16,23.16,0,0,0,6.7-1,22.77,22.77,0,0,0,5.92.8c12.06,0,21.17-9.88,22.08-23.19C74.42,35.58,61.38,25.93,49.45,28Z"/><path class="cls-3" d="M51.53,29a46,46,0,0,0-4.76,1.09c-1.29-.34-2.62-.64-4-.88-11.92-2.09-25,7.56-24,21.61.9,13.32,10,23.2,22.07,23.2a23.06,23.06,0,0,0,6.7-1,22.9,22.9,0,0,0,5.93.8c12.06,0,21.17-9.88,22.08-23.19C76.5,36.58,63.46,26.93,51.53,29Z"/><path class="cls-4" d="M35.15,33.8c-3.71,1.46-8.93,4.25-10.87,9.21a9.55,9.55,0,0,0-.34,1"/><path class="cls-5" d="M47.16,29.86c2.66-2.4,6.16-6.33,6.15-10.77a8.88,8.88,0,0,0-.05-.9"/><path class="cls-6" d="M49.4,27.83c2.8.46,7,.66,9.81-1.59a6.6,6.6,0,0,0,.55-.49"/><path class="cls-6" d="M39,25.22c2.23,1.75,5.78,4,9.36,3.35.24,0,.48-.1.72-.16"/></g></g></svg>