<svg xmlns="http://www.w3.org/2000/svg" xmlns:xlink="http://www.w3.org/1999/xlink" version="1.1" x="0px" y="0px" viewBox="0 0 60 60" style="enable-background:new 0 0 60 60;" xml:space="preserve"><path d="M30,54c13.2333984,0,24-10.7666016,24-24S43.2333984,6,30,6S6,16.7666016,6,30S16.7666016,54,30,54z M30,8  c12.1308594,0,22,9.8691406,22,22s-9.8691406,22-22,22S8,42.1308594,8,30S17.8691406,8,30,8z"></path><path d="M17.4169922,31H29v11.5830078c0,0.5522461,0.4472656,1,1,1s1-0.4477539,1-1V31h11.5830078c0.5527344,0,1-0.4477539,1-1  s-0.4472656-1-1-1H31V17.4169922c0-0.5522461-0.4472656-1-1-1s-1,0.4477539-1,1V29H17.4169922c-0.5527344,0-1,0.4477539-1,1  S16.8642578,31,17.4169922,31z"></path></svg>