<svg xmlns="http://www.w3.org/2000/svg" xmlns:xlink="http://www.w3.org/1999/xlink" xmlns:sketch="http://www.bohemiancoding.com/sketch/ns" viewBox="0 0 39 40" version="1.1" x="0px" y="0px"><title>Power</title><desc>Created with Sketch.</desc><g stroke="none" stroke-width="1" fill="none" fill-rule="evenodd" sketch:type="MSPage"><path d="M29.2,4 C28.5,3.6 27.6,3.8 27.1,4.5 C26.7,5.2 26.9,6.1 27.6,6.6 C32.5,9.5 35.5,14.7 35.5,20.4 C35.5,29.2 28.3,36.4 19.5,36.4 C10.7,36.4 3.5,29.2 3.5,20.4 C3.5,14.8 6.5,9.5 11.4,6.6 C12.1,6.2 12.3,5.3 11.9,4.5 C11.5,3.8 10.6,3.6 9.8,4 C4,7.4 0.5,13.7 0.5,20.3 C0.5,30.8 9,39.3 19.5,39.3 C30,39.3 38.5,30.8 38.5,20.3 C38.6,13.7 35,7.4 29.2,4 L29.2,4 Z M19.6,23.7 C20.4,23.7 21.1,23 21.1,22.2 L21.1,2.3 C21.1,1.5 20.4,0.8 19.6,0.8 C18.8,0.8 18.1,1.5 18.1,2.3 L18.1,22.2 C18.1,23.1 18.7,23.7 19.6,23.7 L19.6,23.7 Z" fill="#000000" sketch:type="MSShapeGroup"></path></g></svg>