<svg xmlns:dc="http://purl.org/dc/elements/1.1/" xmlns:cc="http://creativecommons.org/ns#" xmlns:rdf="http://www.w3.org/1999/02/22-rdf-syntax-ns#" xmlns:svg="http://www.w3.org/2000/svg" xmlns="http://www.w3.org/2000/svg" xmlns:sodipodi="http://sodipodi.sourceforge.net/DTD/sodipodi-0.dtd" xmlns:inkscape="http://www.inkscape.org/namespaces/inkscape" version="1.1" x="0px" y="0px" viewBox="0 0 100 100"><g transform="translate(0,-952.36218)"><path style="font-size:medium;font-style:normal;font-variant:normal;font-weight:normal;font-stretch:normal;text-indent:0;text-align:start;text-decoration:none;line-height:normal;letter-spacing:normal;word-spacing:normal;text-transform:none;direction:ltr;block-progression:tb;writing-mode:lr-tb;text-anchor:start;baseline-shift:baseline;opacity:1;color:#000000;fill:#000000;fill-opacity:1;stroke:none;stroke-width:6;marker:none;visibility:visible;display:inline;overflow:visible;enable-background:accumulate;font-family:Sans;-inkscape-font-specification:Sans" d="M 49.71875 4.96875 A 3.0003 3.0003 0 0 0 47.9375 5.8125 C 31.063497 21.91541 15 42.31928 15 61 C 15 79.5569 30.735537 95 50 95 C 69.264565 95 85 79.5569 85 61 C 85 45.35718 73.703131 28.51136 60.1875 13.9375 A 3.0003 3.0003 0 1 0 55.8125 18.03125 C 68.854953 32.09489 79 48.3933 79 61 C 79 76.1547 66.061441 89 50 89 C 33.938681 89 21 76.1547 21 61 C 21 45.96946 35.699459 25.77154 52.0625 10.15625 A 3.0003 3.0003 0 0 0 49.71875 4.96875 z M 32.96875 40.9375 A 3.0003 3.0003 0 0 0 30.375 42.53125 C 27.265129 48.1847 25.271551 53.72915 25 59.84375 A 3.0003 3.0003 0 0 0 25 59.9375 C 24.875179 66.9643 27.367626 73.53165 31.875 78.09375 A 3.0003 3.0003 0 1 0 36.125 73.875 C 32.902378 70.6133 30.926193 65.6244 31 60.125 C 31.000465 60.115 30.999524 60.10375 31 60.09375 C 31.000317 60.07275 30.999621 60.05325 31 60.03125 C 31.23741 55.07045 32.804414 50.5651 35.625 45.4375 A 3.0003 3.0003 0 0 0 32.96875 40.9375 z " transform="translate(0,952.36218)"></path></g></svg>